<svg width="40" height="20" viewBox="0 0 40 20" fill="none" xmlns="http://www.w3.org/2000/svg">
<path d="M15.6827 18.9241C15.8149 18.9241 15.9223 18.8473 15.9223 18.7286C15.9223 18.6169 15.8149 18.5401 15.6827 18.5401C15.5422 18.5401 15.4348 18.6169 15.4348 18.7286C15.4348 18.8473 15.5422 18.9241 15.6827 18.9241ZM16.3437 18.9241C16.4842 18.9241 16.5916 18.8473 16.5916 18.7286C16.5916 18.6169 16.4842 18.5401 16.3437 18.5401C16.2115 18.5401 16.1041 18.6169 16.1041 18.7286C16.1041 18.8473 16.2115 18.9241 16.3437 18.9241ZM17.013 18.9241C17.1535 18.9241 17.2609 18.8473 17.2609 18.7286C17.2609 18.6169 17.1535 18.5401 17.013 18.5401C16.8808 18.5401 16.7734 18.6169 16.7734 18.7286C16.7734 18.8473 16.8808 18.9241 17.013 18.9241ZM19.1861 17.8279C18.9878 17.8279 18.8143 17.8977 18.7069 18.0025C18.6077 17.8908 18.4507 17.8279 18.2607 17.8279C18.0872 17.8279 17.9384 17.8768 17.8393 17.9676V17.8489H17.4675V18.9101H17.8558V18.3725C17.8558 18.184 17.9797 18.1002 18.1533 18.1002C18.3103 18.1002 18.4094 18.177 18.4094 18.3516V18.9101H18.7978V18.3725C18.7978 18.184 18.9217 18.1002 19.0952 18.1002C19.2522 18.1002 19.3514 18.177 19.3514 18.3516V18.9101H19.7397V18.3027C19.7397 17.9745 19.5083 17.8279 19.1861 17.8279ZM20.5742 17.8279C20.3594 17.8279 20.1363 17.8768 19.9876 17.9606L20.1281 18.177C20.2272 18.1142 20.3759 18.0723 20.5164 18.0723C20.7312 18.0723 20.8304 18.1491 20.8304 18.2817H20.5164C20.1115 18.2817 19.938 18.4144 19.938 18.6029C19.938 18.7844 20.1281 18.9241 20.442 18.9241C20.6403 18.9241 20.7808 18.8752 20.8552 18.7775V18.9101H21.2187V18.3027C21.2187 17.9815 20.9791 17.8279 20.5742 17.8279ZM20.5412 18.7216C20.4007 18.7216 20.3181 18.6657 20.3181 18.5889C20.3181 18.5191 20.3759 18.4633 20.5577 18.4633H20.8304V18.575C20.7808 18.6727 20.6734 18.7216 20.5412 18.7216ZM22.5077 17.4439V17.9606C22.4086 17.8698 22.2681 17.8279 22.1029 17.8279C21.7228 17.8279 21.4336 18.0444 21.4336 18.3795C21.4336 18.7146 21.7228 18.9241 22.1029 18.9241C22.2846 18.9241 22.4251 18.8822 22.5243 18.7844V18.9101H22.8961V17.4439H22.5077ZM22.169 18.6727C21.9789 18.6727 21.8219 18.561 21.8219 18.3795C21.8219 18.191 21.9789 18.0862 22.169 18.0862C22.359 18.0862 22.516 18.191 22.516 18.3795C22.516 18.561 22.359 18.6727 22.169 18.6727ZM24.5073 18.3795C24.5073 18.0374 24.2099 17.8279 23.8132 17.8279C23.4001 17.8279 23.0944 18.0583 23.0944 18.3795C23.0944 18.6937 23.4001 18.9241 23.8628 18.9241C24.1024 18.9241 24.2925 18.8682 24.4164 18.7565L24.2099 18.575C24.119 18.6448 24.0115 18.6797 23.8711 18.6797C23.6645 18.6797 23.524 18.5959 23.491 18.4633H24.5073C24.5073 18.4423 24.5073 18.4074 24.5073 18.3795ZM23.8132 18.0653C23.9868 18.0653 24.119 18.1491 24.1438 18.2817H23.4827C23.5075 18.1491 23.6397 18.0653 23.8132 18.0653ZM25.631 17.6953C25.7798 17.6953 25.8707 17.6254 25.8707 17.5207C25.8707 17.423 25.7798 17.3531 25.631 17.3531C25.4906 17.3531 25.3914 17.43 25.3914 17.5277C25.3914 17.6254 25.4906 17.6953 25.631 17.6953ZM25.3171 19.3081C25.6476 19.3081 25.8294 19.1545 25.8294 18.9101V17.8489H25.4327V18.9101C25.4327 19.0148 25.3749 19.0637 25.2757 19.0637C25.2096 19.0637 25.1518 19.0498 25.1105 19.0288L25.0031 19.2522C25.0857 19.2941 25.2014 19.3081 25.3171 19.3081ZM27.0936 17.8489V18.3725C27.0936 18.568 26.9614 18.6588 26.7796 18.6588C26.6061 18.6588 26.5069 18.582 26.5069 18.4004V17.8489H26.1186V18.4493C26.1186 18.7775 26.3582 18.9241 26.6969 18.9241C26.8622 18.9241 27.0109 18.8752 27.1101 18.7844V18.9101H27.4819V17.8489H27.0936ZM28.2338 18.9241C28.6387 18.9241 28.87 18.7844 28.87 18.5889C28.87 18.17 28.0603 18.3446 28.0603 18.1631C28.0603 18.1072 28.1347 18.0653 28.3082 18.0653C28.4321 18.0653 28.5643 18.0862 28.6965 18.1421L28.8287 17.9257C28.6965 17.8628 28.49 17.8279 28.3082 17.8279C27.9198 17.8279 27.6885 17.9745 27.6885 18.177C27.6885 18.6029 28.4982 18.4214 28.4982 18.5959C28.4982 18.6518 28.4321 18.6937 28.2503 18.6937C28.0851 18.6937 27.9033 18.6518 27.7876 18.5889L27.6554 18.8124C27.7794 18.8752 28.0107 18.9241 28.2338 18.9241ZM29.812 18.6378C29.7707 18.6657 29.7128 18.6797 29.655 18.6797C29.5476 18.6797 29.4898 18.6308 29.4898 18.5401V18.1072H29.8203V17.8698H29.4898V17.6115H29.1014V17.8698H28.8948V18.1072H29.1014V18.5471C29.1014 18.7984 29.2832 18.9241 29.5972 18.9241C29.7211 18.9241 29.8368 18.9031 29.9194 18.8612L29.812 18.6378ZM31.2167 17.8209C31.2167 17.7162 31.2745 17.6673 31.3902 17.6673C31.448 17.6673 31.5059 17.6813 31.5472 17.7092L31.6463 17.4858C31.5802 17.4439 31.4645 17.43 31.3489 17.43C31.0184 17.43 30.8366 17.5836 30.8366 17.8209V17.8698H30.6217V18.1072H30.8366V18.9101H31.2249V18.1072H31.5554V17.8698H31.2167V17.8209ZM32.3156 18.9241C32.7453 18.9241 33.051 18.7007 33.051 18.3795C33.051 18.0583 32.7453 17.8279 32.3156 17.8279C31.886 17.8279 31.572 18.0583 31.572 18.3795C31.572 18.7007 31.886 18.9241 32.3156 18.9241ZM32.3156 18.6727C32.1173 18.6727 31.9686 18.561 31.9686 18.3795C31.9686 18.191 32.1173 18.0862 32.3156 18.0862C32.5139 18.0862 32.6544 18.191 32.6544 18.3795C32.6544 18.561 32.5139 18.6727 32.3156 18.6727ZM33.6211 17.9885V17.8489H33.2493V18.9101H33.6459V18.4074C33.6459 18.2049 33.7864 18.1142 34.0012 18.1142C34.026 18.1142 34.0508 18.1142 34.0838 18.1142V17.8279C33.8773 17.8279 33.7203 17.8838 33.6211 17.9885ZM35.9347 17.8489L35.5546 18.568L35.1828 17.8489H34.7779L35.3563 18.9171V18.9311C35.2985 19.0218 35.2406 19.0637 35.1332 19.0637C35.0588 19.0637 34.9762 19.0358 34.9184 18.9939L34.7696 19.2103C34.8605 19.2732 35.0093 19.3081 35.1497 19.3081C35.3894 19.3081 35.5711 19.2313 35.7033 18.973L36.3148 17.8489H35.9347ZM37.0171 18.9241C37.4385 18.9241 37.7525 18.7007 37.7525 18.3795C37.7525 18.0583 37.4385 17.8279 37.0171 17.8279C36.5875 17.8279 36.2735 18.0583 36.2735 18.3795C36.2735 18.7007 36.5875 18.9241 37.0171 18.9241ZM37.0171 18.6727C36.8188 18.6727 36.6701 18.561 36.6701 18.3795C36.6701 18.191 36.8188 18.0862 37.0171 18.0862C37.2072 18.0862 37.3559 18.191 37.3559 18.3795C37.3559 18.561 37.2072 18.6727 37.0171 18.6727ZM38.9175 17.8489V18.3725C38.9175 18.568 38.7853 18.6588 38.6036 18.6588C38.43 18.6588 38.3309 18.582 38.3309 18.4004V17.8489H37.9425V18.4493C37.9425 18.7775 38.1822 18.9241 38.5209 18.9241C38.6862 18.9241 38.8349 18.8752 38.9341 18.7844V18.9101H39.3059V17.8489H38.9175ZM39.7521 18.9241C39.8926 18.9241 40 18.8473 40 18.7286C40 18.6169 39.8926 18.5401 39.7521 18.5401C39.6199 18.5401 39.5125 18.6169 39.5125 18.7286C39.5125 18.8473 39.6199 18.9241 39.7521 18.9241Z" fill="#4CAF50"/>
<path fill-rule="evenodd" clip-rule="evenodd" d="M7.57694 8.26269C7.41995 8.12305 5.85003 5.9796 5.55257 5.60258C5.30469 5.29538 5.09812 4.99516 4.8585 4.68795C4.61888 4.39471 4.39578 4.08751 4.18095 3.79427C3.55298 2.94248 2.70192 1.90915 2.14005 1.08529L0 1.07831V16.7387L1.9748 16.7457L1.99132 3.9758C2.14005 4.08053 8.40322 12.2144 8.46932 12.2982C9.70873 13.918 10.502 14.7978 12.5015 15.7752C13.9227 16.4664 15.7488 16.8085 17.4427 16.7527C17.8145 16.7457 18.9713 16.6549 19.2439 16.5293L19.1861 8.79331H24.5486V7.51562L13.4022 7.50166V8.77237L17.3105 8.80029L17.3187 15.2236C15.1291 15.2586 13.6005 14.686 12.0554 13.6597C11.667 13.3944 11.2126 12.9475 10.9068 12.6194C9.47737 11.1183 8.87419 8.53498 9.93183 6.37059C11.4191 3.32648 15.4018 1.79744 19.1778 2.83076C20.062 3.06815 21.698 3.80125 22.1276 4.3598C22.3177 4.31093 22.3673 4.22016 22.4829 4.11544L23.4332 3.28459C23.1109 2.92153 22.1442 2.34203 21.5327 2.04181C20.8139 1.69271 20.0041 1.40646 19.1035 1.21096C15.534 0.428989 11.5017 1.62289 9.43606 4.04562C8.18012 5.51182 7.86614 6.44739 7.57694 8.26269Z" fill="#4CAF50"/>
<path fill-rule="evenodd" clip-rule="evenodd" d="M38.8762 13.0384C38.934 13.1152 38.901 12.9267 38.9258 13.1501C38.9754 13.5062 38.9175 15.7683 38.901 15.8242L35.9181 15.8451V16.7318L39.6446 16.7109C40.0247 16.5992 39.9834 16.3688 39.9834 15.9848C39.9834 15.6287 39.9834 15.2726 39.9834 14.9165C39.9834 14.6093 40.0412 12.5357 39.9256 12.3681C39.8595 12.2843 39.7025 12.1796 39.5785 12.1447C39.3472 12.0889 36.166 12.0958 35.9016 12.1307V13.0314L38.8762 13.0384Z" fill="#4CAF50"/>
<path fill-rule="evenodd" clip-rule="evenodd" d="M35.6125 16.7457L35.629 12.1167C34.8854 12.1167 34.5383 12.1446 34.5383 12.8219V16.0545C34.5383 16.8504 35.0671 16.7457 35.6125 16.7457Z" fill="#4CAF50"/>
<path fill-rule="evenodd" clip-rule="evenodd" d="M22.2847 16.7457L22.293 12.1167C20.9461 12.1167 21.2105 12.4448 21.2105 14.4417C21.2105 16.613 20.9709 16.7457 22.2847 16.7457Z" fill="#4CAF50"/>
<path fill-rule="evenodd" clip-rule="evenodd" d="M32.2248 15.8171H29.2584L29.2336 16.7457C30.2913 16.7457 31.3406 16.7387 32.39 16.7457C32.7205 16.7457 33.3154 16.8294 33.3154 16.243C33.3154 15.824 33.3485 15.3074 33.3072 14.9024L32.2413 14.8954L32.2248 15.8171Z" fill="#4CAF50"/>
<path fill-rule="evenodd" clip-rule="evenodd" d="M29.2336 12.8987V13.0453H32.2248V13.9529H33.3154C33.3154 13.548 33.3154 13.15 33.3154 12.7521C33.3237 12.3122 33.1419 12.1167 32.6048 12.1167H29.2336V12.8987Z" fill="#4CAF50"/>
<path fill-rule="evenodd" clip-rule="evenodd" d="M22.5407 14.9164H26.6473L26.639 13.9599H22.5407V14.9164Z" fill="#4CAF50"/>
<path fill-rule="evenodd" clip-rule="evenodd" d="M22.5654 16.6062L22.582 16.7458C23.3421 16.7458 24.1106 16.7458 24.8707 16.7458C26.5481 16.7458 26.6472 16.9274 26.6472 15.8172H22.5737L22.5654 16.6062Z" fill="#4CAF50"/>
<path fill-rule="evenodd" clip-rule="evenodd" d="M22.5654 12.3122L22.5737 13.0453H26.6472C26.6638 12.5915 26.7381 12.1167 25.9532 12.1167H22.5654V12.3122Z" fill="#4CAF50"/>
<path fill-rule="evenodd" clip-rule="evenodd" d="M29.1197 16.6587L29.1279 12.0577C28.4504 11.9739 28.0372 12.1484 28.0372 12.714V15.9815C28.0372 16.6378 28.376 16.7216 29.1197 16.6587Z" fill="#4CAF50"/>
</svg>
