<svg width="20" height="20" viewBox="0 0 20 20" fill="none" xmlns="http://www.w3.org/2000/svg">
    <path fill-rule="evenodd" clip-rule="evenodd" d="M14.3344 0.7502H5.66537C2.64437 0.7502 0.750366 2.8892 0.750366 5.9162V14.0842C0.750366 17.1112 2.63537 19.2502 5.66537 19.2502H14.3334C17.3644 19.2502 19.2504 17.1112 19.2504 14.0842V5.9162C19.2504 2.8892 17.3644 0.7502 14.3344 0.7502Z" stroke="#898CA6" stroke-width="1.5" stroke-linecap="round" stroke-linejoin="round"/>
    <path fill-rule="evenodd" clip-rule="evenodd" d="M8.69226 10.0002C8.69226 11.0222 7.86326 11.8522 6.84026 11.8522C5.81826 11.8522 4.98926 11.0222 4.98926 10.0002C4.98926 8.9782 5.81826 8.1482 6.84026 8.1482C7.86326 8.1482 8.69226 8.9782 8.69226 10.0002Z" stroke="#898CA6" stroke-width="1.5" stroke-linecap="round" stroke-linejoin="round"/>
    <path d="M8.69226 10.0002H15.0103V11.8522" stroke="#898CA6" stroke-width="1.5" stroke-linecap="round" stroke-linejoin="round"/>
    <path d="M12.1816 11.8517V9.9997" stroke="#898CA6" stroke-width="1.5" stroke-linecap="round" stroke-linejoin="round"/>
</svg>
