<svg width="20" height="22" viewBox="0 0 20 22" fill="none" xmlns="http://www.w3.org/2000/svg">
    <path fill-rule="evenodd" clip-rule="evenodd" d="M18.6066 6.62357L17.9901 5.54348C17.4686 4.62956 16.3129 4.31428 15.4065 4.83867V4.83867C14.9751 5.0953 14.4602 5.16811 13.9756 5.04104C13.4909 4.91398 13.0762 4.59747 12.8229 4.16133C12.6599 3.8841 12.5724 3.56835 12.5691 3.246V3.246C12.5838 2.72918 12.3907 2.22836 12.0337 1.85763C11.6768 1.48689 11.1865 1.27782 10.6744 1.27803H9.43247C8.93081 1.27803 8.44983 1.47987 8.09595 1.8389C7.74207 2.19793 7.54448 2.68455 7.54689 3.19108V3.19108C7.53202 4.23688 6.6881 5.07677 5.65224 5.07666C5.33299 5.07331 5.02027 4.9849 4.74571 4.82037V4.82037C3.83934 4.29597 2.68361 4.61125 2.1621 5.52517L1.50033 6.62357C0.979453 7.53635 1.28745 8.70256 2.18929 9.23227V9.23227C2.77551 9.574 3.13663 10.2055 3.13663 10.889C3.13663 11.5725 2.77551 12.204 2.18929 12.5458V12.5458C1.2886 13.0719 0.980262 14.2353 1.50033 15.1453V15.1453L2.12584 16.2346C2.37019 16.6797 2.78016 17.0082 3.26505 17.1474C3.74993 17.2865 4.26974 17.2249 4.70945 16.976V16.976C5.14171 16.7213 5.65682 16.6515 6.14028 16.7822C6.62373 16.9128 7.03548 17.233 7.284 17.6716C7.44695 17.9488 7.53451 18.2646 7.53782 18.587V18.587C7.53782 19.6435 8.38609 20.5 9.43247 20.5H10.6744C11.7173 20.5 12.5641 19.6491 12.5691 18.5961V18.5961C12.5666 18.088 12.7655 17.6 13.1213 17.2407C13.4772 16.8814 13.9605 16.6806 14.4637 16.6831C14.7822 16.6917 15.0936 16.7797 15.3702 16.9394V16.9394C16.2743 17.4653 17.4292 17.1543 17.9539 16.2437V16.2437L18.6066 15.1453C18.8592 14.7075 18.9285 14.186 18.7992 13.6963C18.6699 13.2067 18.3526 12.7893 17.9176 12.5366V12.5366C17.4826 12.2839 17.1653 11.8665 17.036 11.3769C16.9066 10.8873 16.976 10.3658 17.2286 9.92792C17.3929 9.63829 17.6308 9.39815 17.9176 9.23227V9.23227C18.814 8.70285 19.1213 7.54345 18.6066 6.63272V6.63272V6.62357Z" stroke="#898CA6" stroke-width="1.5" stroke-linecap="round" stroke-linejoin="round"/>
    <ellipse cx="10.058" cy="10.889" rx="2.61081" ry="2.63616" stroke="#898CA6" stroke-width="1.5" stroke-linecap="round" stroke-linejoin="round"/>
</svg>
