<svg width="20" height="20" viewBox="0 0 20 20" fill="none" xmlns="http://www.w3.org/2000/svg">
<path d="M10.0001 19.4546C8.75798 19.4568 7.52761 19.2136 6.37972 18.739C5.23183 18.2643 4.18903 17.5675 3.31122 16.6886C3.26199 16.6377 3.23475 16.5694 3.23536 16.4985C3.23598 16.4277 3.2644 16.3599 3.31451 16.3098C3.36462 16.2596 3.43241 16.2312 3.50327 16.2306C3.57414 16.23 3.64241 16.2572 3.69338 16.3065C5.16291 17.7753 7.0991 18.6852 9.16781 18.8789C11.2365 19.0727 13.308 18.5383 15.0247 17.3679C16.7415 16.1974 17.9958 14.4645 18.5713 12.468C19.1468 10.4715 19.0073 8.33676 18.1769 6.43214C18.1625 6.39958 18.1546 6.36449 18.1538 6.32888C18.153 6.29328 18.1593 6.25787 18.1722 6.22468C18.1851 6.1915 18.2044 6.16119 18.2291 6.13551C18.2538 6.10982 18.2833 6.08927 18.3159 6.07502C18.3486 6.06078 18.3837 6.05312 18.4193 6.0525C18.4549 6.05188 18.4903 6.0583 18.5234 6.07139C18.5565 6.08448 18.5867 6.10399 18.6123 6.1288C18.6378 6.1536 18.6582 6.18321 18.6723 6.21593C19.3005 7.6554 19.5603 9.22868 19.4282 10.7937C19.2961 12.3587 18.7763 13.8662 17.9157 15.18C17.055 16.4938 15.8807 17.5726 14.4988 18.3189C13.1168 19.0651 11.5707 19.4555 10.0001 19.4546Z" fill="#0052CE"/>
<path d="M1.35548 13.394C1.29985 13.394 1.24558 13.3769 1.20007 13.3449C1.15455 13.3129 1.12001 13.2677 1.10115 13.2154C0.37036 11.192 0.350999 8.97994 1.04626 6.94406C1.74153 4.90818 3.10989 3.17005 4.92569 2.01633C6.74149 0.862601 8.89627 0.362184 11.0347 0.597603C13.1731 0.833021 15.1674 1.79022 16.6887 3.31132C16.738 3.3623 16.7652 3.43057 16.7646 3.50143C16.764 3.5723 16.7355 3.64008 16.6854 3.69019C16.6353 3.7403 16.5675 3.76873 16.4967 3.76934C16.4258 3.76996 16.3575 3.74272 16.3066 3.69349C14.6339 2.02087 12.3654 1.0812 9.99994 1.0812C7.6345 1.0812 5.36594 2.02087 3.69331 3.69349C2.49909 4.89409 1.66952 6.40853 1.30077 8.0613C0.932015 9.71407 1.03916 11.4375 1.6098 13.0319C1.62456 13.0727 1.62927 13.1165 1.62353 13.1595C1.61779 13.2025 1.60176 13.2436 1.57681 13.2791C1.55186 13.3146 1.51872 13.3436 1.4802 13.3636C1.44167 13.3836 1.39889 13.3941 1.35548 13.394Z" fill="#0052CE"/>
<path d="M16.4979 3.77212H14.7055C14.6338 3.77212 14.565 3.74365 14.5143 3.69296C14.4637 3.64228 14.4352 3.57353 14.4352 3.50185C14.4352 3.43017 14.4637 3.36143 14.5143 3.31074C14.565 3.26006 14.6338 3.23158 14.7055 3.23158H16.2276V1.70942C16.2276 1.63774 16.2561 1.56899 16.3068 1.51831C16.3575 1.46762 16.4262 1.43915 16.4979 1.43915C16.5696 1.43915 16.6383 1.46762 16.689 1.51831C16.7397 1.56899 16.7682 1.63774 16.7682 1.70942V3.50185C16.7682 3.57353 16.7397 3.64228 16.689 3.69296C16.6383 3.74365 16.5696 3.77212 16.4979 3.77212Z" fill="#0052CE"/>
<path d="M3.5022 18.5603C3.43052 18.5603 3.36178 18.5319 3.31109 18.4812C3.26041 18.4305 3.23193 18.3617 3.23193 18.2901V16.4976C3.23193 16.4259 3.26041 16.3572 3.31109 16.3065C3.36178 16.2558 3.43052 16.2274 3.5022 16.2274H5.29464C5.36632 16.2274 5.43506 16.2558 5.48575 16.3065C5.53643 16.3572 5.56491 16.4259 5.56491 16.4976C5.56491 16.5693 5.53643 16.6381 5.48575 16.6887C5.43506 16.7394 5.36632 16.7679 5.29464 16.7679H3.77247V18.2901C3.77247 18.3617 3.744 18.4305 3.69331 18.4812C3.64263 18.5319 3.57388 18.5603 3.5022 18.5603Z" fill="#0052CE"/>
<path d="M13.8037 9.76544C13.766 9.76544 13.7299 9.7505 13.7033 9.72389C13.6767 9.69729 13.6618 9.6612 13.6618 9.62358V7.84433H12.2429C12.2053 7.84433 12.1692 7.82939 12.1426 7.80278C12.116 7.77618 12.1011 7.74009 12.1011 7.70247C12.1011 7.66485 12.116 7.62876 12.1426 7.60216C12.1692 7.57555 12.2053 7.56061 12.2429 7.56061H13.8037C13.8413 7.56061 13.8774 7.57555 13.904 7.60216C13.9306 7.62876 13.9455 7.66485 13.9455 7.70247V9.62382C13.9455 9.6614 13.9305 9.69742 13.9039 9.72398C13.8773 9.75053 13.8412 9.76544 13.8037 9.76544Z" fill="#0052CE"/>
<path d="M13.8037 13.5199H7.20607C6.8863 13.5196 6.57974 13.3924 6.35363 13.1663C6.12753 12.9402 6.00035 12.6336 6 12.3139V6.92229C6 6.88466 6.01495 6.84858 6.04155 6.82198C6.06815 6.79537 6.10424 6.78043 6.14186 6.78043C6.17949 6.78043 6.21557 6.79537 6.24217 6.82198C6.26878 6.84858 6.28372 6.88466 6.28372 6.92229V12.314C6.28398 12.5585 6.38123 12.793 6.55415 12.9659C6.72707 13.1388 6.96152 13.2361 7.20607 13.2363H13.6619V11.3267C13.6619 11.2891 13.6768 11.253 13.7034 11.2264C13.73 11.1998 13.7661 11.1848 13.8037 11.1848C13.8414 11.1848 13.8774 11.1998 13.904 11.2264C13.9306 11.253 13.9456 11.2891 13.9456 11.3267V13.3782C13.9456 13.4158 13.9306 13.4519 13.904 13.4784C13.8774 13.505 13.8413 13.5199 13.8037 13.5199Z" fill="#0052CE"/>
<path d="M14.1195 11.4687H12.2649C12.0015 11.4687 11.7489 11.3641 11.5626 11.1778C11.3764 10.9916 11.2717 10.739 11.2717 10.4756C11.2717 10.2122 11.3764 9.95956 11.5626 9.77331C11.7489 9.58706 12.0015 9.48242 12.2649 9.48242H14.1195C14.1947 9.48252 14.2668 9.51244 14.32 9.56563C14.3732 9.61882 14.4031 9.69093 14.4032 9.76615V11.185C14.4031 11.2602 14.3732 11.3323 14.32 11.3855C14.2668 11.4387 14.1947 11.4686 14.1195 11.4687ZM14.1195 9.76615H12.2649C12.0767 9.76615 11.8963 9.84089 11.7632 9.97393C11.6302 10.107 11.5555 10.2874 11.5555 10.4756C11.5555 10.6637 11.6302 10.8442 11.7632 10.9772C11.8963 11.1103 12.0767 11.185 12.2649 11.185H14.1195V9.76615Z" fill="#0052CE"/>
<path d="M12.243 7.84444H6.92222C6.67763 7.84444 6.44306 7.74728 6.27011 7.57433C6.09716 7.40138 6 7.16681 6 6.92222C6 6.67763 6.09716 6.44306 6.27011 6.27011C6.44306 6.09716 6.67763 6 6.92222 6H12.1005C12.176 6.00019 12.2483 6.0303 12.3016 6.08374C12.3549 6.13717 12.3849 6.20956 12.3849 6.28504V7.70258C12.3849 7.74021 12.3699 7.77629 12.3433 7.80289C12.3167 7.8295 12.2806 7.84444 12.243 7.84444ZM6.92222 6.28372C6.75288 6.28372 6.59048 6.35099 6.47074 6.47074C6.35099 6.59048 6.28372 6.75288 6.28372 6.92222C6.28372 7.09156 6.35099 7.25397 6.47074 7.37371C6.59048 7.49345 6.75288 7.56072 6.92222 7.56072H12.1005V6.28504L6.92222 6.28372Z" fill="#0052CE"/>
<path d="M12.243 7.06415H7.5381C7.50048 7.06415 7.46439 7.0492 7.43779 7.0226C7.41119 6.996 7.39624 6.95991 7.39624 6.92229C7.39624 6.88466 7.41119 6.84858 7.43779 6.82198C7.46439 6.79537 7.50048 6.78043 7.5381 6.78043H12.243C12.2806 6.78043 12.3167 6.79537 12.3433 6.82198C12.3699 6.84858 12.3848 6.88466 12.3848 6.92229C12.3848 6.95991 12.3699 6.996 12.3433 7.0226C12.3167 7.0492 12.2806 7.06415 12.243 7.06415Z" fill="#0052CE"/>
<path d="M12.3906 10.9131C12.2968 10.9131 12.2051 10.8853 12.1271 10.8331C12.0492 10.781 11.9884 10.7069 11.9526 10.6203C11.9167 10.5336 11.9073 10.4383 11.9256 10.3463C11.944 10.2543 11.9891 10.1699 12.0555 10.1036C12.1218 10.0373 12.2063 9.99211 12.2983 9.97384C12.3903 9.95557 12.4856 9.96498 12.5723 10.0009C12.6589 10.0368 12.7329 10.0976 12.785 10.1756C12.8371 10.2536 12.8649 10.3453 12.8649 10.4391C12.8647 10.5648 12.8147 10.6853 12.7258 10.7742C12.6368 10.8631 12.5163 10.913 12.3906 10.9131ZM12.3906 10.2152C12.3463 10.2151 12.303 10.2282 12.2662 10.2527C12.2294 10.2773 12.2006 10.3122 12.1837 10.3531C12.1667 10.394 12.1622 10.439 12.1708 10.4824C12.1794 10.5258 12.2007 10.5657 12.232 10.597C12.2632 10.6284 12.3031 10.6497 12.3465 10.6584C12.3899 10.6671 12.4349 10.6627 12.4758 10.6457C12.5167 10.6288 12.5517 10.6002 12.5763 10.5634C12.6009 10.5266 12.6141 10.4833 12.6141 10.4391C12.6141 10.3797 12.5905 10.3229 12.5486 10.2809C12.5067 10.2389 12.4499 10.2153 12.3906 10.2152Z" fill="#0052CE"/>
</svg>
